<?xml version="1.0" encoding="UTF-8" standalone="no"?>
<svg
   xmlns:dc="http://purl.org/dc/elements/1.1/"
   xmlns:cc="http://creativecommons.org/ns#"
   xmlns:rdf="http://www.w3.org/1999/02/22-rdf-syntax-ns#"
   xmlns:svg="http://www.w3.org/2000/svg"
   xmlns="http://www.w3.org/2000/svg"
   viewBox="0 0 1056 816"
   height="816"
   width="1056"
   xml:space="preserve"
   id="svg2"
   version="1.1"><metadata
     id="metadata8"><rdf:RDF><cc:Work
         rdf:about=""><dc:format>image/svg+xml</dc:format><dc:type
           rdf:resource="http://purl.org/dc/dcmitype/StillImage" /></cc:Work></rdf:RDF></metadata><defs
     id="defs6"><clipPath
       id="clipPath18"
       clipPathUnits="userSpaceOnUse"><path
         id="path16"
         d="M 436.5,49.079 H 544.613 V 114 H 436.5 Z" /></clipPath><clipPath
       id="clipPath42"
       clipPathUnits="userSpaceOnUse"><path
         id="path40"
         d="M 45.2,48.779 H 153.313 V 113.7 H 45.2 Z" /></clipPath><clipPath
       id="clipPath182"
       clipPathUnits="userSpaceOnUse"><path
         id="path180"
         d="M 0,0 H 792 V 612 H 0 Z" /></clipPath></defs><g
     transform="matrix(1.3333333,0,0,-1.3333333,0,816)"
     id="g10"><g
       id="g12"><g
         clip-path="url(#clipPath18)"
         id="g14"><g
           transform="translate(445.9869,81.5391)"
           id="g20"><path
             id="path22"
             style="fill:#231f20;fill-opacity:1;fill-rule:evenodd;stroke:none"
             d="m 0,0 c 0,5.29 4.289,9.579 9.578,9.579 5.291,0 9.578,-4.289 9.578,-9.579 0,-5.289 -4.287,-9.578 -9.578,-9.578 C 4.289,-9.578 0,-5.289 0,0 M 90.14,0 10.975,-28.293 v 16.412 c 5.951,0.693 10.572,5.745 10.572,11.881 0,6.138 -4.621,11.189 -10.572,11.881 V 28.294 Z M 98.626,0 8.121,32.461 V 11.872 C 2.199,11.152 -2.391,6.116 -2.391,0 c 0,-6.115 4.59,-11.151 10.512,-11.871 V -32.46 Z" /></g></g></g><text
       id="text26"
       style="font-variant:normal;font-weight:bold;font-stretch:normal;font-size:14.20240021px;font-family:'FGAVAM +HelveticaNeue-Bold';-inkscape-font-specification:HelveticaNeue-Bold;writing-mode:lr-tb;fill:#231f20;fill-opacity:1;fill-rule:nonzero;stroke:none"
       transform="matrix(1,0,0,-1,467.6891,77.8399)"><tspan
         id="tspan24"
         y="0"
         x="0 3.4511833 11.915813 16.702023 21.758078 30.222708 38.431694 41.882877 49.822018 57.235672">igtronics </tspan></text>
<text
       id="text30"
       style="font-variant:normal;font-weight:bold;font-stretch:normal;font-size:6.54059982px;font-family:'FGAVAM +HelveticaNeue-Bold';-inkscape-font-specification:HelveticaNeue-Bold;writing-mode:lr-tb;fill:#231f20;fill-opacity:1;fill-rule:nonzero;stroke:none"
       transform="matrix(1,0,0,-1,525.3216,79.2414)"><tspan
         id="tspan28"
         y="0"
         x="0">®</tspan></text>
<text
       id="text34"
       style="font-variant:normal;font-weight:bold;font-stretch:normal;font-size:20.55610085px;font-family:'FGAVAM +HelveticaNeue-Bold';-inkscape-font-specification:HelveticaNeue-Bold;writing-mode:lr-tb;fill:#231f20;fill-opacity:1;fill-rule:nonzero;stroke:none"
       transform="matrix(1,0,0,-1,448.8357,74.2339)"><tspan
         id="tspan32"
         y="0"
         x="0">S</tspan></text>
<g
       id="g36"><g
         clip-path="url(#clipPath42)"
         id="g38"><g
           transform="translate(54.6869,81.2391)"
           id="g44"><path
             id="path46"
             style="fill:#231f20;fill-opacity:1;fill-rule:evenodd;stroke:none"
             d="m 0,0 c 0,5.29 4.289,9.579 9.578,9.579 5.291,0 9.578,-4.289 9.578,-9.579 0,-5.289 -4.287,-9.578 -9.578,-9.578 C 4.289,-9.578 0,-5.289 0,0 M 90.14,0 10.975,-28.293 v 16.412 c 5.951,0.693 10.572,5.745 10.572,11.881 0,6.138 -4.621,11.189 -10.572,11.881 V 28.294 Z M 98.626,0 8.121,32.461 V 11.872 C 2.199,11.152 -2.391,6.116 -2.391,0 c 0,-6.115 4.59,-11.151 10.512,-11.871 V -32.46 Z" /></g></g></g><text
       id="text50"
       style="font-variant:normal;font-weight:bold;font-stretch:normal;font-size:14.20240021px;font-family:'FGAVAM +HelveticaNeue-Bold';-inkscape-font-specification:HelveticaNeue-Bold;writing-mode:lr-tb;fill:#231f20;fill-opacity:1;fill-rule:nonzero;stroke:none"
       transform="matrix(1,0,0,-1,76.3891,77.5399)"><tspan
         id="tspan48"
         y="0"
         x="0 3.4511833 11.915813 16.702023 21.758078 30.222708 38.431694 41.882877 49.822018 57.235672">igtronics </tspan></text>
<text
       id="text54"
       style="font-variant:normal;font-weight:bold;font-stretch:normal;font-size:6.54059982px;font-family:'FGAVAM +HelveticaNeue-Bold';-inkscape-font-specification:HelveticaNeue-Bold;writing-mode:lr-tb;fill:#231f20;fill-opacity:1;fill-rule:nonzero;stroke:none"
       transform="matrix(1,0,0,-1,134.0216,78.9414)"><tspan
         id="tspan52"
         y="0"
         x="0">®</tspan></text>
<text
       id="text58"
       style="font-variant:normal;font-weight:bold;font-stretch:normal;font-size:20.55610085px;font-family:'FGAVAM +HelveticaNeue-Bold';-inkscape-font-specification:HelveticaNeue-Bold;writing-mode:lr-tb;fill:#231f20;fill-opacity:1;fill-rule:nonzero;stroke:none"
       transform="matrix(1,0,0,-1,57.5357,73.9339)"><tspan
         id="tspan56"
         y="0"
         x="0">S</tspan></text>
<path
       id="path60"
       style="fill:none;stroke:#231f20;stroke-width:1;stroke-linecap:butt;stroke-linejoin:miter;stroke-miterlimit:4;stroke-dasharray:none;stroke-opacity:1"
       d="m 423.5,27.5 h 341 v 557 h -341 z" /><path
       id="path62"
       style="fill:none;stroke:#231f20;stroke-width:1;stroke-linecap:butt;stroke-linejoin:miter;stroke-miterlimit:4;stroke-dasharray:none;stroke-opacity:1"
       d="m 27.5,27.5 h 341 v 557 h -341 z" /><text
       id="text66"
       style="font-style:italic;font-variant:normal;font-weight:bold;font-stretch:normal;font-size:14px;font-family:'Myriad Pro';-inkscape-font-specification:MyriadPro-BoldIt;writing-mode:lr-tb;fill:#231f20;fill-opacity:1;fill-rule:nonzero;stroke:none"
       transform="matrix(1,0,0,-1,505,45)"><tspan
         id="tspan64"
         y="0"
         x="0 14.7 25.662001 34.243999 41.958 50.540001 53.816002 58.226002 63.798 67.073997 73.723999 82.25 90.790001 99.372002 104.944 111.468">…when it counts!</tspan></text>
<text
       id="text70"
       style="font-variant:normal;font-weight:bold;font-stretch:normal;font-size:24px;font-family:'Myriad Pro';-inkscape-font-specification:MyriadPro-Bold;writing-mode:lr-tb;fill:#231f20;fill-opacity:1;fill-rule:nonzero;stroke:none"
       transform="matrix(1,0,0,-1,534.3439,533.7)"><tspan
         id="tspan68"
         y="0"
         x="0 20.239201 34.0872 48.271198 60.9888 67.588799 72.436798 85.228798 98.015999 106.0032">Model SE-8</tspan></text>
<text
       id="text74"
       style="font-variant:normal;font-weight:bold;font-stretch:normal;font-size:24px;font-family:'Myriad Pro';-inkscape-font-specification:MyriadPro-Bold;writing-mode:lr-tb;fill:#231f20;fill-opacity:1;fill-rule:nonzero;stroke:none"
       transform="matrix(1,0,0,-1,484.2953,504.9)"><tspan
         id="tspan72"
         y="0"
         x="0 16.488001 29.1096 41.642399 55.867199 66.1632 78.792 87.599998 92.447998 99.204002 113.1 123.396 132.2664 141.1488 155.0208 166.0968 174.9408 181.3848 195.11279 209.0088">Headset Instructions</tspan></text>
<text
       id="text78"
       style="font-variant:normal;font-weight:normal;font-stretch:normal;font-size:10.19999981px;font-family:'Myriad Pro';-inkscape-font-specification:MyriadPro-Regular;writing-mode:lr-tb;fill:#231f20;fill-opacity:1;fill-rule:nonzero;stroke:none"
       transform="matrix(1,0,0,-0.98039216,427.5,456.9)"><tspan
         id="tspan76"
         y="0"
         x="0 5.2111802 10.95888 16.120081 19.190281 24.189301 29.276039 32.662441 37.946041 41.016239 45.14418 50.32272 53.72646 56.178539 61.327499 65.417702 68.4879 74.235603 79.38456 84.380524 90.149643 94.27758 99.476517 102.90372 105.97392 108.36072 112.45092 115.52112 120.51708 126.26274 128.75359 134.39011 138.5619 141.9075 147.15948 152.96329 156.03348 160.93968 164.36688 167.43707 170.82756 176.57526 181.73647 184.80666 187.91257 192.87996 197.72394 201.06444 206.73972 210.45863 215.31384 218.38403 221.4267 227.10197 230.48837 233.55858 235.96375 244.50114 253.10484 258.35785 264.13818 266.54437 271.45056 274.79514 279.95633 283.02655 288.66409 292.79202 297.95322 301.02341 308.61325 311.05103 314.44153 320.15353 323.22372 328.1748 330.5871 332.99429">The SE-8 series headset is adjusted at the factory for immediate use with all </tspan></text>
<text
       id="text82"
       style="font-variant:normal;font-weight:normal;font-stretch:normal;font-size:10.19890022px;font-family:'Myriad Pro';-inkscape-font-specification:MyriadPro-Regular;writing-mode:lr-tb;fill:#231f20;fill-opacity:1;fill-rule:nonzero;stroke:none"
       transform="matrix(1,0,0,-0.9804979,427.5,444.9)"><tspan
         id="tspan80"
         y="0"
         x="0 4.9984808 7.4227595 13.192277 16.59259 19.93783 25.598219 31.272886 33.697166 38.418236 42.498817 45.405502 50.576344 59.168919 64.33976 67.695198 73.457581 78.628418 84.350006 89.21386 94.059357 96.966042 101.90129 107.76566 113.66674 118.60097 122.01046 126.90593 130.30115 135.92889 140.00948 142.91617 145.31291 150.93761 154.27264 159.44348 162.76323 167.25278 172.91318 181.40988 185.49045 188.39714 193.33238 199.05397 204.84796 207.75465 211.16313 216.14835 221.91991 224.36153 230.00253 232.90923 237.89546 243.67416 248.60838 254.45032 257.78638 262.95721 266.41464 270.49625 273.40292 275.79865 281.50085 284.40753 289.5784 298.17096 303.3418 306.69623 312.45859 317.62946 323.35101 328.21487 333.01855">Sigtronics emergency apparatus intercoms and radio adapters in emergency </tspan></text>
<text
       id="text86"
       style="font-variant:normal;font-weight:normal;font-stretch:normal;font-size:10px;font-family:'Myriad Pro';-inkscape-font-specification:MyriadPro-Regular;writing-mode:lr-tb;fill:#231f20;fill-opacity:1;fill-rule:nonzero;stroke:none"
       transform="matrix(1,0,0,-1,427.5,432.9)"><tspan
         id="tspan84"
         y="0"
         x="0 4.711 9.7510004 15.274 17.608999 22.042999 24.427999 29.424999 33.446999 35.516998 37.637001 42.695 48.279999 53.290001 55.41 60.994999 65.991997 70.838997 76.445 80.441002 85.487 88.796997 90.917 93.205002 97.165001 99.285004 104.384 109.984 115.471 117.779 123.492 129.282 134.38 140.02 142.14 149.53101 151.871 155.144 160.694 162.814 167.634 169.754 173.66299 175.97099 181.53999 187.106 189.491 194.50101 196.621 202.355 204.67599 210.209 215.799 217.91901 222.716 228.289 233.929 236.049 240.869 242.989 247.349 252.839 255.145 257.53 262.629 268.26901 270.38901 274.75 280.263 283.51001 289.17599">vehicles. The headset is equipped with a single plug and a coiled cord.</tspan></text>
<text
       id="text90"
       style="font-variant:normal;font-weight:normal;font-stretch:normal;font-size:10px;font-family:'Myriad Pro';-inkscape-font-specification:MyriadPro-Regular;writing-mode:lr-tb;fill:#231f20;fill-opacity:1;fill-rule:nonzero;stroke:none"
       transform="matrix(1,0,0,-1,427.5,408.9)"><tspan
         id="tspan88"
         y="0"
         x="0 5.0580001 10.643 15.653 17.403 22.988001 27.985001 32.832001 38.472 40.222 44.261002 47.554001 50.855 55.652 61.341999 63.091999 65.380997 69.341003 71.091003 75.936996 81.518997 83.910004 89.386002 93.425003 96.800003 101.597 107.336 109.721 114.731 116.481 120.472 125.962 127.712 132.342 137.851 143.36099 145.11099 153.44099 158.11301 162.823 164.573 169.021 174.49699 178.536 181.75999 187.27299 195.61301 197.36301 202.593 205.903 207.653 210.92599 216.511 221.521 223.271 228.855 233.85201 238.69901 244.30499 248.30099 253.347 256.711 258.78101 260.53101 265.73599 268.073 272.89301 277.26401 282.27399 284.02399 287.297 292.88199 297.892 299.642 305.22699 310.224 315.07101 320.677 324.673 329.71799 333.02802">The head strap is adjustable so you may custom ft the headset. Place the headset </tspan></text>
<text
       id="text94"
       style="font-variant:normal;font-weight:normal;font-stretch:normal;font-size:10px;font-family:'Myriad Pro';-inkscape-font-specification:MyriadPro-Regular;writing-mode:lr-tb;fill:#231f20;fill-opacity:1;fill-rule:nonzero;stroke:none"
       transform="matrix(1,0,0,-1,427.5,396.9)"><tspan
         id="tspan92"
         y="0"
         x="0 5.395 10.106 15.132 18.402 20.757 25.386999 30.896 36.388 39.658001 42.013 47.598 52.595001 57.442001 63.082001 65.436996 70.234001 75.806999 81.446999 83.801003 88.648003 94.230003 96.621002 102.097 106.136 109.446 111.801 115.074 120.659 125.669 128.024 132.063 135.356 138.65601 143.453 149.14301 151.498 156.991 162.465 165.73801 168.04401 170.40401 172.759 181.08099 183.388 188.911 191.21899 199.52499 205.01801 213.358 215.713 221.42599 224.66901 229.666 233.58 237.47099 242.964 246.207 251.217 253.57201 255.86 259.82001 262.17401 265.11099 270.16101 272.509 275.819 278.17401 283.68701 289.237 291.591 294.86401 300.44901 305.45901 307.814 311.03799 316.55099 322.241 324.59601 330.07901 332.99899">over your head and adjust the strap until minimum pressure is felt on the top of </tspan></text>
<text
       id="text98"
       style="font-variant:normal;font-weight:normal;font-stretch:normal;font-size:10px;font-family:'Myriad Pro';-inkscape-font-specification:MyriadPro-Regular;writing-mode:lr-tb;fill:#231f20;fill-opacity:1;fill-rule:nonzero;stroke:none"
       transform="matrix(1,0,0,-1,427.5,384.9)"><tspan
         id="tspan96"
         y="0"
         x="0 4.6300001 10.139 15.632 18.902 21.322001 26.907 31.903999 36.750999 42.417 44.487 46.907001 51.675999 57.188999 60.459 62.879002 71.209 76.137001 80.803001 83.111 91.417 96.910004 105.25 107.67 113.239 118.729 121.018 125.014 130.024 132.444 137.203 140.742 143.97099 148.996 154.502 159.99699 164.756 168.02901 170.382 175.895 181.44501 183.515 185.935 189.20799 194.793 199.80299 202.22301 206.657 208.994 213.791 222.11 227.82201 230.13 235.69901 241.289 243.709 249.422 252.66499 257.66101 261.57599 265.466 270.95901 274.202 279.21201 281.63199 287.11499 290.035 292.45499 295.72699 301.31201 306.32199 308.742 314.327 319.32401 324.17099">your head. For maximum noise attenuation, the clamping pressure of the head</tspan></text>
<text
       id="text102"
       style="font-variant:normal;font-weight:normal;font-stretch:normal;font-size:10px;font-family:'Myriad Pro';-inkscape-font-specification:MyriadPro-Regular;writing-mode:lr-tb;fill:#231f20;fill-opacity:1;fill-rule:nonzero;stroke:none"
       transform="matrix(1,0,0,-1,757.4301,384.9)"><tspan
         id="tspan100"
         y="0"
         x="0">-</tspan></text>
<text
       id="text106"
       style="font-variant:normal;font-weight:normal;font-stretch:normal;font-size:10px;font-family:'Myriad Pro';-inkscape-font-specification:MyriadPro-Regular;writing-mode:lr-tb;fill:#231f20;fill-opacity:1;fill-rule:nonzero;stroke:none"
       transform="matrix(0.99981,0,0,-1,427.5,372.9)"><tspan
         id="tspan104"
         y="0"
         x="0 5.744 10.541 16.114 21.754 23.454 28.983 33.756001 37.716 39.416 45.188999 50.287998 55.313 60.862999 62.557999 66.554001 71.598999 74.908997 76.609001 81.366997 84.677002 86.372002 89.644997 95.228996 100.239 101.934 104.928 109.748 114.447 117.67 123.183 126.779 131.05901 133.129 134.82401 140.246 145.295 147.67999 152.67599 157.44901 161.35699 163.66499 169.233 174.823 176.51801 179.791 185.37601 190.386 192.086 196.519 198.856 203.65199 211.97099 217.68201 219.99001 225.558 231.14799 232.843 238.556 241.798 246.795 250.70799 254.599 260.09201 263.33401 268.34399 270.039 275.65799 280.36801 282.06799 287.841 292.867 298.439 304.056 306.36301 311.93201 317.522 319.22198 322.49399 328.07901 333.08899">band has been set at the factory. Releasing the clamping pressure by bending the </tspan></text>
<text
       id="text110"
       style="font-variant:normal;font-weight:normal;font-stretch:normal;font-size:10px;font-family:'Myriad Pro';-inkscape-font-specification:MyriadPro-Regular;writing-mode:lr-tb;fill:#231f20;fill-opacity:1;fill-rule:nonzero;stroke:none"
       transform="matrix(1,0,0,-1,427.5,360.9)"><tspan
         id="tspan108"
         y="0"
         x="0 5.585 10.582 15.429 21.049 26.792999 31.593 37.166 42.806 44.925999 47.215 51.174999">headband is </tspan></text>
<text
       id="text114"
       style="font-style:italic;font-variant:normal;font-weight:bold;font-stretch:normal;font-size:10px;font-family:'Myriad Pro';-inkscape-font-specification:MyriadPro-BoldIt;writing-mode:lr-tb;fill:#231f20;fill-opacity:1;fill-rule:nonzero;stroke:none"
       transform="matrix(1,0,0,-1,480.7951,360.9)"><tspan
         id="tspan112"
         y="0"
         x="0 5.6799998 11.32 14.8 16.639999 22.257999 27.940001 33.094002 35.838001 40.048 45.131001">not advised</tspan></text>
<text
       id="text118"
       style="font-variant:normal;font-weight:normal;font-stretch:normal;font-size:10px;font-family:'Myriad Pro';-inkscape-font-specification:MyriadPro-Regular;writing-mode:lr-tb;fill:#231f20;fill-opacity:1;fill-rule:nonzero;stroke:none"
       transform="matrix(1,0,0,-1,531.4053,360.9)"><tspan
         id="tspan116"
         y="0"
         x="0 2.0699999 4.1900001 9.9639997 15.063 19.593 24.360001 29.836 33.832001 38.841999 40.962002 43.347 48.799999 52.714001 56.674 58.793999 64.277 67.196999 69.317001 74.075996 77.614998 80.844002 85.869003 91.375 96.870003 101.629 104.902 107.255 112.768 118.318 120.438 127.829 130.13499 132.44901 134.80901 136.929 140.172 145.168 149.05901 154.55 156.89799 160.26199">, because loss of attenuation will result.</tspan></text>
<text
       id="text122"
       style="font-variant:normal;font-weight:normal;font-stretch:normal;font-size:10px;font-family:'Myriad Pro';-inkscape-font-specification:MyriadPro-Regular;writing-mode:lr-tb;fill:#231f20;fill-opacity:1;fill-rule:nonzero;stroke:none"
       transform="matrix(1,0,0,-1,427.5,336.9)"><tspan
         id="tspan120"
         y="0"
         x="0 5.0580001 10.643 15.653 18.098 26.42 28.754999 33.208 36.445999 41.959 47.698002 53.266998 58.779999 64.364998 69.375 71.824997 77.598 83.167 88.68 97.019997 99.470001 101.759 105.719 108.169 111.162 116.653 118.967 121.358 126.068 128.51801 133.36501 138.94701 141.338 146.814 150.853 154.228 159.02499 164.763 167.14799 172.158 174.608 179.405 184.978 190.618 193.063 200.45399 202.75999 205.07401 207.43401 209.884 213.12199 218.58501 221.96001 226.718 229.94701 234.957 237.407 242.02 247.222 252.35201 254.797 260.45999 265.55899 271.13199 274.375 279.474 284.47101 288.431 290.88101 293.81201 299.32501 302.595 305.04501 310.521 314.517 319.52701 321.97699 327.48999 333.04001">The microphone boom is fully adjustable and will rotate 180 degrees for use on </tspan></text>
<text
       id="text126"
       style="font-variant:normal;font-weight:normal;font-stretch:normal;font-size:10px;font-family:'Myriad Pro';-inkscape-font-specification:MyriadPro-Regular;writing-mode:lr-tb;fill:#231f20;fill-opacity:1;fill-rule:nonzero;stroke:none"
       transform="matrix(1,0,0,-1,427.5,324.9)"><tspan
         id="tspan124"
         y="0"
         x="0 3.273 8.8579998 13.868 15.988 18.372999 23.438 26.681999 29.992001 32.112 37.625 40.895 43.014999 46.301998 48.637001 54.203999 59.678001 62.987999 65.108002 69.016998 71.374001 77.037003 82.046997 84.167 89.649002 92.569 94.689003 97.961998 103.547 108.557 110.677 116.262 121.259 126.106 131.771">the left or right side of the head.</tspan></text>
<text
       id="text130"
       style="font-style:italic;font-variant:normal;font-weight:bold;font-stretch:normal;font-size:10px;font-family:'Myriad Pro';-inkscape-font-specification:MyriadPro-BoldIt;writing-mode:lr-tb;fill:#231f20;fill-opacity:1;fill-rule:nonzero;stroke:none"
       transform="matrix(0.98374,0,0,-1,427.5,300.9)"><tspan
         id="tspan128"
         y="0"
         x="0 8.2740002 13.896 19.094999 24.075001 25.514999 29.712 35.398998 39.103001 44.083 45.522999 50.390999 56.015999 61.585999 63.026001 68.648003 72.351997 77.332001 78.766998 83.002998 88.679001 93.737 99.359001 104.716 107.446 113.081 118.631 120.066 122.796 128.437 131.87 137.42999 138.86501 142.382 148.037 153.017 154.452 158.67999 161.34801 166.99001 171.97 173.405 179.03799 182.298 183.73801 187.255 192.91 197.89 199.325 207.677 210.32899 214.649 216.084 218.75101 224.342 229.98801 235.076 237.76401 242.81599 248.386 249.821 254.495 259.18399 264.80701 267.53101 273.02499 277.47501 278.91 284.548 288.21799 289.65302 293.85101 299.50601 305.14401 309.34601 312.80499 318.427 324.06799 327.58499 330.25601 335.879 338.52899">Make sure you are speaking into the side of the mic labeled “Talk” or substantial </tspan></text>
<text
       id="text134"
       style="font-style:italic;font-variant:normal;font-weight:bold;font-stretch:normal;font-size:10.00479984px;font-family:'Myriad Pro';-inkscape-font-specification:MyriadPro-BoldIt;writing-mode:lr-tb;fill:#231f20;fill-opacity:1;fill-rule:nonzero;stroke:none"
       transform="matrix(1,0,0,-0.99952023,427.5,288.9)"><tspan
         id="tspan132"
         y="0"
         x="0 2.7103002 8.3830223 12.642065 16.804062 19.255238 24.921957 28.213535 30.664713 36.31142 41.968136 44.729462 50.362164 52.813339 60.186874 62.9482 65.705521 68.356796 70.807968 76.478691 80.85379 85.265907 90.986656 94.321251 96.922501 99.37368 107.71068 110.39597 114.88212 118.61391 124.29764 130.00438 135.6841 141.35582 147.04555 152.05795 154.50912 160.21587 162.91516 168.52185 172.93398 178.05542 186.44044 191.5619 197.23663 200.71829 203.16948 207.43051 213.10924 218.76796 224.46069 227.15498 232.75768 235.20885 240.88957 245.90198 248.35315 253.98285 257.46454 259.91571 263.46539 269.15414 274.16653 276.61771 281.02182 286.69254 290.39432 296.08405 301.20551 304.90729 307.35846 313.02518 316.31677 318.76794 322.31763 328.00735 333.01978">loss of gain will occur. Microphone placement should be at the corner of the </tspan></text>
<text
       id="text138"
       style="font-style:italic;font-variant:normal;font-weight:bold;font-stretch:normal;font-size:10px;font-family:'Myriad Pro';-inkscape-font-specification:MyriadPro-BoldIt;writing-mode:lr-tb;fill:#231f20;fill-opacity:1;fill-rule:nonzero;stroke:none"
       transform="matrix(1,0,0,-1,427.5,276.9)"><tspan
         id="tspan136"
         y="0"
         x="0 8.3710003 14.026 19.695999 23.246 28.987 31.587 33.426998 39.088001 44.804001 50.507 54.236 59.807999 64.858002 67.617996 75.990997 81.617996 85.092003 90.209999 92.942001 97.912003 99.751999 107.824 112.305 114.145 117.505 121.234 126.902 135.21201 137.052 140.60201 146.28799 151.298 153.138 155.89301 158.67 164.37399 168.71899">mouth, approximately ¼” from the lips.</tspan></text>
<text
       id="text142"
       style="font-variant:normal;font-weight:normal;font-stretch:normal;font-size:10px;font-family:'Myriad Pro';-inkscape-font-specification:MyriadPro-Regular;writing-mode:lr-tb;fill:#231f20;fill-opacity:1;fill-rule:nonzero;stroke:none"
       transform="matrix(1,0,0,-1,427.5,252.9)"><tspan
         id="tspan140"
         y="0"
         x="0 8.5139999 14.099 19.125 24.674999 26.855 31.485001 36.993999 42.504002">When you </tspan></text>
<text
       id="text146"
       style="font-style:italic;font-variant:normal;font-weight:bold;font-stretch:normal;font-size:10px;font-family:'Myriad Pro';-inkscape-font-specification:MyriadPro-BoldIt;writing-mode:lr-tb;fill:#231f20;fill-opacity:1;fill-rule:nonzero;stroke:none"
       transform="matrix(1,0,0,-1,472.1876,252.9)"><tspan
         id="tspan144"
         y="0"
         x="0 5.7680001 9.5480003 13.781 17.261 19.150999 23.552 29.222 34.931999 40.618 45.685001 50.185001 53.666 55.556 59.102001 64.788002 69.797997 71.688004 77.374001 82.463997 88.084 93.809998 98.024002 103.114">frst connect the headset</tspan></text>
<text
       id="text150"
       style="font-variant:normal;font-weight:normal;font-stretch:normal;font-size:10px;font-family:'Myriad Pro';-inkscape-font-specification:MyriadPro-Regular;writing-mode:lr-tb;fill:#231f20;fill-opacity:1;fill-rule:nonzero;stroke:none"
       transform="matrix(1,0,0,-1,578.7441,252.9)"><tspan
         id="tspan148"
         y="0"
         x="0 2.0699999 4.25 7.5380001 13.031 16.337 21.886999 24.066999 27.34 32.924999 37.935001 40.115002 44.826 50.360001 52.681 58.174 66.557999 71.568001 73.748001 78.109001 83.622002 89.096001 92.389 95.626999 101.161 103.521 105.701 111.214 116.764 118.944 122.217 127.802 132.812 134.992 140.577 145.57401 150.42 156.026 160.022 165.06799 168.37801 170.558 176.05099 181.741">, turn the volume control on the headset up </tspan></text>
<text
       id="text154"
       style="font-variant:normal;font-weight:normal;font-stretch:normal;font-size:10.08710003px;font-family:'Myriad Pro';-inkscape-font-specification:MyriadPro-Regular;writing-mode:lr-tb;fill:#231f20;fill-opacity:1;fill-rule:nonzero;stroke:none"
       transform="matrix(1,0,0,-0.99136521,427.5,240.9)"><tspan
         id="tspan152"
         y="0"
         x="0 3.2702379 8.8282299 11.682879 15.002543 20.655355 25.729166 28.583815 31.622049 37.179031 39.531345 41.932076 44.786724 49.278511 51.702438 57.338104 61.82888 66.86335 74.336884 76.663979 80.713951 85.787758 88.64241 94.502007 100.02066 103.98186 106.36242 109.68208 112.07373 117.65291 123.27142 125.37962 128.23428 131.55495 137.20676 142.29468 147.91319 150.76785 155.67522 161.32501 163.75499 169.29684 173.38918 176.74818 179.60283 182.92351 188.5753 193.64912 196.50377 198.85809 201.1852 205.27753 208.55382 213.64175 219.23102 221.57828 227.21394 232.8728 235.72746 240.49765 246.09801 248.45738 254.01738 262.49255 267.56638 270.42102 277.89456 280.27008 283.59076 289.20926 292.0639 295.38358 301.03537 306.10919 308.96384 313.79153 319.39691 325.08099 327.47266 333.01047">to the full clockwise position, then adjust the listening volume with the audio </tspan></text>
<text
       id="text158"
       style="font-variant:normal;font-weight:normal;font-stretch:normal;font-size:10px;font-family:'Myriad Pro';-inkscape-font-specification:MyriadPro-Regular;writing-mode:lr-tb;fill:#231f20;fill-opacity:1;fill-rule:nonzero;stroke:none"
       transform="matrix(1,0,0,-1,427.5,228.9)"><tspan
         id="tspan156"
         y="0"
         x="0 4.3610001 9.8739996 15.348 18.641001 21.879 27.413 29.773001 32.092999 37.576 40.495998 42.816002 47.84 50.18 53.452999 59.037998 64.064003 67.334 69.653999 74.283997 79.792999 85.286003 88.556 90.875999 94.176003 99.023003 104.64 106.993 112.483 114.803 120.316 123.586 125.906 128.214 133.688 136.91701 141.94299 145.157 149.51801 155.03101 163.371 165.69099 170.464 174.424 176.744 181.541 187.254 192.967 196.205 201.718 207.431 210.718 213.026 217.785 221.01401 225.964 228.034 230.354 232.797 235.717 238.037 242.834 248.547 254.28101 256.59698 258.93201 263.46201 268.259 273.99701 276.38199 281.315 283.38501 285.70499 290.15799 293.401 298.375 305.73499 308.05499 316.439 321.465">control of either your radio or intercom as appropriate. If applicable, crew mem</tspan></text>
<text
       id="text162"
       style="font-variant:normal;font-weight:normal;font-stretch:normal;font-size:10px;font-family:'Myriad Pro';-inkscape-font-specification:MyriadPro-Regular;writing-mode:lr-tb;fill:#231f20;fill-opacity:1;fill-rule:nonzero;stroke:none"
       transform="matrix(1,0,0,-1,757.4301,228.9)"><tspan
         id="tspan160"
         y="0"
         x="0">-</tspan></text>
<text
       id="text166"
       style="font-variant:normal;font-weight:normal;font-stretch:normal;font-size:10px;font-family:'Myriad Pro';-inkscape-font-specification:MyriadPro-Regular;writing-mode:lr-tb;fill:#231f20;fill-opacity:1;fill-rule:nonzero;stroke:none"
       transform="matrix(1,0,0,-1,427.5,216.9)"><tspan
         id="tspan164"
         y="0"
         x="0 5.7740002 10.8 14.149 18.108999 20.179001 24.112 29.681 35.189999 40.681 43.056999 48.696999 50.766998 55.570999 57.870998 61.862 67.351997 69.421997 72.709999 78.203003 81.509003 87.058998 89.128998 92.402 97.987 103.011 105.319 108.589 110.659 112.967 118.54 124.157 126.518 131.37399 133.731 139.332 144.827 149.631 151.991 154.061 159.646 164.64301 169.49001 175.09599 179.092 184.138 187.448 189.51801 194.229 199.763 202.084 207.577 215.961 220.95799 224.918 226.98801 232.481 238.17101 240.241 243.23399 248.72501 251.039 253.42999 257.711 259.78101 261.85101 268.59 274.07999 276.388 281.957 287.547 289.617 292.89001 298.41299 300.70099 304.66101 306.73099 311.535 313.849 316.23401 321.64899 328.996 332.95599">bers should also turn their individual headset volumes up fully. Doing this allows </tspan></text>
<text
       id="text170"
       style="font-variant:normal;font-weight:normal;font-stretch:normal;font-size:10px;font-family:'Myriad Pro';-inkscape-font-specification:MyriadPro-Regular;writing-mode:lr-tb;fill:#231f20;fill-opacity:1;fill-rule:nonzero;stroke:none"
       transform="matrix(1,0,0,-1,427.5,204.9)"><tspan
         id="tspan168"
         y="0"
         x="0 2.9319999 8.4449997 11.715 13.545 18.365 20.195 23.188999 28.68 30.993999 33.354 35.183998 38.485001 43.282001 48.849998 54.463001 59.473 61.303001 66.786003 69.706001 71.536003 76.383003 81.964996 84.356003 89.832001 93.871002 97.164001 105.548 110.573 116.047 119.357 121.187 124.119 129.632 132.90199 134.73199 139.729 144.549 148.983 154.533 156.36301 162.108 166.881 170.795 174.791 179.817 185.386 190.99899 196.02499 198.83 200.89999 202.73 206.638 208.946 214.515 218.886 223.896 225.726 228.99899 234.56799 240.02 244.017 249.02699 250.85699 258.24799 260.58801 263.86099 269.41101 271.241 274.51401 280.099 285.10901 286.939 295.30701 300.76001 304.79901 308.10901 309.939 314.759 319.207 324.724 327.953 332.96301">for a full range of adjustment for each passenger, since those with the most acute </tspan></text>
<text
       id="text174"
       style="font-variant:normal;font-weight:normal;font-stretch:normal;font-size:10px;font-family:'Myriad Pro';-inkscape-font-specification:MyriadPro-Regular;writing-mode:lr-tb;fill:#231f20;fill-opacity:1;fill-rule:nonzero;stroke:none"
       transform="matrix(1,0,0,-1,427.5,192.9)"><tspan
         id="tspan172"
         y="0"
         x="0 5.585 10.582 15.379 18.666 20.974001 26.542999 32.132999 34.252998 38.782001 43.578999 49.129002 51.249001 54.536999 60.029999 63.335999 68.886002 71.005997 74.278999 79.863998 84.888 87.195999 90.466003 92.585999 98.169998 103.167 108.014 113.62 117.616 122.662 125.972 128.092 132.80299 138.33701 140.658 146.151 154.535 159.545 161.66499 167.327 172.742 180.15199 185.702 187.772 189.892 192.24899 195.16901 197.289 202.87399 207.97301 212.34399 217.34 221.254 225.293 230.09 233.686 237.967">hearing can turn their headset volume down, if necessary.</tspan></text>
<g
       id="g176"><g
         clip-path="url(#clipPath182)"
         id="g178"><text
           id="text186"
           style="font-variant:normal;font-weight:normal;font-stretch:normal;font-size:10px;font-family:'Myriad Pro';-inkscape-font-specification:MyriadPro-Regular;writing-mode:lr-tb;fill:#231f20;fill-opacity:1;fill-rule:nonzero;stroke:none"
           transform="matrix(1,0,0,-1,643.5,153)"><tspan
             id="tspan184"
             y="0"
             x="0 4.3610001 9.8739996 15.348 18.621 20.929001 26.434999 31.968 37.067001 42.707001 44.826 50.339001 55.889 58.008999 63.754002 68.573997 73.008003 77.642998">continued on back…</tspan></text>
</g></g><text
       id="text190"
       style="font-variant:normal;font-weight:normal;font-stretch:normal;font-size:10px;font-family:'Myriad Pro';-inkscape-font-specification:MyriadPro-Regular;writing-mode:lr-tb;fill:#231f20;fill-opacity:1;fill-rule:nonzero;stroke:none"
       transform="matrix(1,0,0,-1,31.5,561)"><tspan
         id="tspan188"
         y="0"
         x="0 5.0580001 10.643 15.653 18.313 23.898001 28.895 33.742001 39.348 43.344002 48.389999 51.700001 54.360001 60.104 64.901001 68.453003 71.862 75.821999 78.482002 86.811996 91.484001 96.194 98.853996 104.628 109.638 112.298 116.732 119.117 124.114 128.911 134.496 139.595 145.235 147.895 155.285 157.625 160.89799 166.448 169.108 177.42999 179.73599 182.112 187.752 190.412 194.403 199.948 204.745 210.435 213.095 217.892 223.465 229.105 231.765 239.142 243.901 247.13 252.15601 255.42599 258.086 263.56201 267.47101 269.77899 275.34799 280.93799 283.59799 288.418 291.078 295.069 300.552 303.797 307.10699 309.767 314.20099 316.586 322.04901 325.32199 330.91299 332.983">The headset parts may be cleaned with mild soap and water using a soft cloth. </tspan></text>
<text
       id="text194"
       style="font-variant:normal;font-weight:normal;font-stretch:normal;font-size:10px;font-family:'Myriad Pro';-inkscape-font-specification:MyriadPro-Regular;writing-mode:lr-tb;fill:#231f20;fill-opacity:1;fill-rule:nonzero;stroke:none"
       transform="matrix(0.99992,0,0,-1,31.5,549)"><tspan
         id="tspan192"
         y="0"
         x="0 5.0580001 10.642 15.668 21.218 22.917999 28.538 32.132999 36.842999 38.542999 40.851002 49.171001 57.555 62.653999 68.274002 70.581001 75.339996 78.569 83.619003 86.009003 90.290001 92.360001">Then dry immediately. </tspan></text>
<text
       id="text198"
       style="font-style:italic;font-variant:normal;font-weight:bold;font-stretch:normal;font-size:10px;font-family:'Myriad Pro';-inkscape-font-specification:MyriadPro-BoldIt;writing-mode:lr-tb;fill:#231f20;fill-opacity:1;fill-rule:nonzero;stroke:none"
       transform="matrix(0.99992,0,0,-1,125.5388,549)"><tspan
         id="tspan196"
         y="0"
         x="0 5.7490001 11.369 17.035 20.582001 23.292 28.962 34.578999 37.179001 38.648998 45.581001 51.171001 52.640999 59.381001 65.017998 68.498001 69.968002 72.727997 81.135002 89.514999 94.632004 98.412003 102.626">Caution: Do Not immerse</tspan></text>
<text
       id="text202"
       style="font-variant:normal;font-weight:normal;font-stretch:normal;font-size:10px;font-family:'Myriad Pro';-inkscape-font-specification:MyriadPro-Regular;writing-mode:lr-tb;fill:#231f20;fill-opacity:1;fill-rule:nonzero;stroke:none"
       transform="matrix(0.99992,0,0,-1,234.86946,549)"><tspan
         id="tspan200"
         y="0"
         x="0 4.7969999 10.184 14.894 16.594 22.339001 27.135 30.687 33.997002 35.696999 41.179001 44.098999 45.799 49.071999 54.657001 59.667 61.367001 66.952003 71.948997 76.795998 82.401001 86.397003 91.443001 94.752998 96.447998 98.755997 104.306 106.006 113.383 118.141 121.37 126.396 129.666">any part of the headset in water </tspan></text>
<text
       id="text206"
       style="font-variant:normal;font-weight:normal;font-stretch:normal;font-size:10px;font-family:'Myriad Pro';-inkscape-font-specification:MyriadPro-Regular;writing-mode:lr-tb;fill:#231f20;fill-opacity:1;fill-rule:nonzero;stroke:none"
       transform="matrix(1,0,0,-1,31.5,537)"><tspan
         id="tspan204"
         y="0"
         x="0 5.513 8.783 10.923 15.72 21.108 25.818001 27.958 33.421001 36.694 42.278999 47.305 50.575001 52.715 55.030998 57.383999 62.984001 68.471001 70.828003 76.494003 78.564003 80.704002 86.18 91.190002 93.330002 98.327003 102.243 108.033 113.132 117.566 119.874 124.678 126.992 129.382 134.092 136.23199 140.76199 145.55901 148.80099 153.866 156.86 162.351 164.711 166.851 172.42 177.883 181.19299 183.33299 186.558 192.048 194.188 198.992 201.306 203.69 209.105 216.465 218.605 221.87801 227.463 232.47301 234.61301 242.935 245.27 249.72301 252.96001 258.47299 264.21201 269.78101 275.29401 280.879 285.88901 288.02899 291.25299 296.74301 298.883 304.65601 309.755 314.116 319.629 328.013 333.02301">or any other liquid. Be especially careful not to allow the microphone to become </tspan></text>
<text
       id="text210"
       style="font-variant:normal;font-weight:normal;font-stretch:normal;font-size:10px;font-family:'Myriad Pro';-inkscape-font-specification:MyriadPro-Regular;writing-mode:lr-tb;fill:#231f20;fill-opacity:1;fill-rule:nonzero;stroke:none"
       transform="matrix(1,0,0,-1,31.5,525)"><tspan
         id="tspan208"
         y="0"
         x="0 7.2989998 12.345 15.655 17.955 20.205 25.341999 30.007999 35.798 41.250999 45.141998 50.634998 53.877998 58.888 61.138 64.362 69.851997 72.101997 80.470001 85.959999 88.248001 92.287003 95.574997 101.068 104.311 109.321 111.571 119.901 124.573 129.283 131.533 136.063 140.83099 146.30701 150.30299 155.313 157.558 159.866 165.34 168.569 173.595 176.901 182.431 187.235 189.595 191.845 196.20599 201.71899 205.02499 208.26199 213.715 217.62399 219.97701 225.49001 231.03999 233.28999 238.08701 243.66 249.3 251.55 254.54401 259.336 261.64099 263.96201 269.45499 272.698 277.70801 279.95801 284.755 290.328 295.96799 298.21799 305.60901 307.914 310.228 312.58801 314.83801 319.54901 325.039 327.396 333.03601">wet! Exposure to moisture may cause internal corrosion and failure and will void </tspan></text>
<text
       id="text214"
       style="font-variant:normal;font-weight:normal;font-stretch:normal;font-size:10px;font-family:'Myriad Pro';-inkscape-font-specification:MyriadPro-Regular;writing-mode:lr-tb;fill:#231f20;fill-opacity:1;fill-rule:nonzero;stroke:none"
       transform="matrix(1,0,0,-1,31.5,513)"><tspan
         id="tspan212"
         y="0"
         x="0 4.6300001 10.139 15.629 18.899 21.018999 29.349001 34.148998 39.655998 45.191002 48.185001 53.008999 57.708 60.998001 66.487999 69.731003 74.757004 78.106003 82.066002 84.185997 91.563004 96.362999 99.668999 102.97 107.77 113.243 116.826 121.107">your manufacturers warranty.</tspan></text>
<text
       id="text218"
       style="font-variant:normal;font-weight:normal;font-stretch:normal;font-size:10px;font-family:'Myriad Pro';-inkscape-font-specification:MyriadPro-Regular;writing-mode:lr-tb;fill:#231f20;fill-opacity:1;fill-rule:nonzero;stroke:none"
       transform="matrix(1,0,0,-1,31.5,489)"><tspan
         id="tspan216"
         y="0"
         x="0 5.7280002 8.1129999 13.11 17.907 23.43 25.738001 31.306 36.896 39.015999 46.407001 48.713001 51.027 53.387001 55.507 61.091999 66.141998 68.463997 74.153999 76.274002 79.545998 85.130997 90.140999 92.261002 97.846001 102.843 107.69 113.296 117.292 122.338 125.648 127.768 136.09801 140.89 143.19701 148.67101 152.04601 156.838 159.146 164.696 166.81599 169.15601 172.565 176.52499 178.645 182.157 184.47301 186.782 191.355 196.36501 198.485 204.07001 209.04401 216.612 220.15199 222.272 226.633 232.146 237.71899 243.336 245.67599 248.948 251.30099 256.814 262.36401 264.48401 267.41599 272.92899 276.19901 278.319 286.64899 291.44601 296.83401 301.54401 303.664 308.29401 313.29099 318.08801 321.436 325.45901">Cleaning will help the headset maintain its “like new” condition for many years.</tspan></text>
<text
       id="text222"
       style="font-variant:normal;font-weight:bold;font-stretch:normal;font-size:10px;font-family:'Myriad Pro';-inkscape-font-specification:MyriadPro-Bold;writing-mode:lr-tb;fill:#231f20;fill-opacity:1;fill-rule:nonzero;stroke:none"
       transform="matrix(1,0,0,-1,167.4785,465)"><tspan
         id="tspan220"
         y="0"
         x="0 8.9169998 11.85 18.847 25.771999 31.181999 37.141998 43.188999 48.662998 54.137001">WINDSCREEN</tspan></text>
<text
       id="text226"
       style="font-variant:normal;font-weight:normal;font-stretch:normal;font-size:10px;font-family:'Myriad Pro';-inkscape-font-specification:MyriadPro-Regular;writing-mode:lr-tb;fill:#231f20;fill-opacity:1;fill-rule:nonzero;stroke:none"
       transform="matrix(1,0,0,-1,31.5,441)"><tspan
         id="tspan224"
         y="0"
         x="0 5.0580001 10.643 15.653 18.382999 26.705 29.040001 33.490002 36.73 42.243 47.981998 53.550999 59.063999 64.649002 69.658997 72.389 79.779999 82.089996 87.663002 93.273003 97.264 101.714 104.954 110.053 115.079 120.629 123.359 130.75 133.06 135.37399 137.73399 140.464 143.70399 148.80299 154.40401 159.937 164.308 169.31799 172.048 176.845 182.36501 187.935 193.33501 198.105 200.41499 205.98399 211.57401 214.304 221.69501 224.005 229.578 235.218 237.948 243.517 249.011 251.3 255.29601 260.306 263.03601 267.83401 273.40701 279.04599 281.776 287.49399 290.73401 295.73099 300.48999 303.763 309.31299 312.043 317.83301 323.34601 329.00601 332.966">The microphone windscreen will reduce annoying wind noise and breath pops </tspan></text>
<text
       id="text230"
       style="font-variant:normal;font-weight:normal;font-stretch:normal;font-size:10.16720009px;font-family:'Myriad Pro';-inkscape-font-specification:MyriadPro-Regular;writing-mode:lr-tb;fill:#231f20;fill-opacity:1;fill-rule:nonzero;stroke:none"
       transform="matrix(1,0,0,-0.98355496,31.5,429)"><tspan
         id="tspan228"
         y="0"
         x="0 5.8430901 8.2527161 12.796438 17.480467 22.700308 28.470194 31.357677 36.978107 42.797813 45.685295 51.43383 56.258167 59.145653 64.859619 69.974739 74.938362 80.673683 84.772079 89.938034 93.338966 96.226448 104.72318 107.13179 111.69482 115.02255 120.66331 126.53385 132.23155 137.87129 143.58527 148.7014 152.82726 154.96745 157.85493 160.31133 163.71225 166.59975 171.51965 173.89369 177.987 183.60439 186.49187 192.33597 195.6637 201.25362 204.5722 209.79204 214.60417 218.10576 222.16756 225.05504 228.41835 234.13231 239.26065 242.14813 250.64487 253.05449 257.61752 260.94525 266.58603 272.45554 278.15323 283.79401 289.50797 294.63733 297.52481 302.69482 305.15427 310.2999 318.85965 324.00528 329.60638 332.97174">picked up by headset microphones. It also protects the microphone element </tspan></text>
<text
       id="text234"
       style="font-variant:normal;font-weight:normal;font-stretch:normal;font-size:10px;font-family:'Myriad Pro';-inkscape-font-specification:MyriadPro-Regular;writing-mode:lr-tb;fill:#231f20;fill-opacity:1;fill-rule:nonzero;stroke:none"
       transform="matrix(1,0,0,-1,31.5,417)"><tspan
         id="tspan232"
         y="0"
         x="0 2.9990001 6.2389998 11.752 20.091999 22.341999 27.958 30.268 33.819 37.130001 39.380001 44.176998 49.75 55.389999 57.639999 66.009003 71.502998 73.792 77.830002 81.117996 86.612 89.851997 94.802002 96.872002 99.122002 104.18 109.765 114.775 117.025 124.416 126.726 132.299 137.909 141.89999 146.35001 149.59 154.689 159.715 165.265 167.515 171.44501 177.01401 182.52299 188.01401 190.39 196.03 198.28 204.054 209.064 211.314 218.692 223.464 227.394 232.979 238.078 243.718 245.968 249.20799 254.30701 259.867 265.358 267.69501 272.492 275.77899 278.17001 282.88 285.13 288.354 293.84399 296.09399 304.42401 309.21399 311.52399 316.99799 320.37299 325.16299 327.47299 333.02301">from dirt and moisture. The windscreen should be washed regularly to maintain </tspan></text>
<text
       id="text238"
       style="font-variant:normal;font-weight:normal;font-stretch:normal;font-size:10px;font-family:'Myriad Pro';-inkscape-font-specification:MyriadPro-Regular;writing-mode:lr-tb;fill:#231f20;fill-opacity:1;fill-rule:nonzero;stroke:none"
       transform="matrix(0.9951,0,0,-1,31.5,405)"><tspan
         id="tspan236"
         y="0"
         x="0 5.3769999 10.001 15.557 17.9 22.915001 28.49 33.488998 35.168999 39.956001 45.515999 51.145 52.825001 57.476002 62.176998 67.660004 70.010002 75.639999 77.32 81.744003 84.113998 89.672997 95.273003 100.829 103.127 108.687 114.282 116.341 118.021 126.254 131.01601 134.939 140.478 142.158 144.45599 149.995 151.675 159.045 163.83099 167.127 175.45599 177.136 184.506 189.254 192.47301 197.48801 200.748 202.42799 207.215 212.77499 218.40401 220.084 228.395 230.69099 233.056 238.685 240.36501 244.345 249.88 254.666 260.254 262.31299 263.99301 269.41299 271.70999 277.19101 281.17599 286.17499 287.85501 291.117 296.677 302.177 305.40399 310.90399 316.42401 321.98099 327.50299 329.884 334.59399">hygiene and avoid clogging. Wash in warm water and mild soap. Rinse thoroughly </tspan></text>
<text
       id="text242"
       style="font-variant:normal;font-weight:normal;font-stretch:normal;font-size:10px;font-family:'Myriad Pro';-inkscape-font-specification:MyriadPro-Regular;writing-mode:lr-tb;fill:#231f20;fill-opacity:1;fill-rule:nonzero;stroke:none"
       transform="matrix(1,0,0,-1,31.5,393)"><tspan
         id="tspan240"
         y="0"
         x="0 4.7969999 10.37 16.01 18.129999 26.459999 31.26 35.833 40.842999 42.963001 46.853001 52.346001 55.589001 60.598999 62.719002 65.058998 68.369003 70.488998 72.778 76.737999 78.858002 83.219002 88.732002 97.051003 102.785 105.169 110.215 113.444 118.494 120.885 125.595 127.715 133.338 136.93401 141.644 143.76401 149.53799 154.60201 157.534 163.047 166.28999 171.3 173.42 179.145 184.662 188.201 191.474 193.782 199.351 204.94099 207.061 209.401 212.711 214.83099 220.576 225.396 229.83 234.52 236.64 242.153 247.744">and make sure it is completely dry before putting it back on.</tspan></text>
<text
       id="text246"
       style="font-variant:normal;font-weight:normal;font-stretch:normal;font-size:10px;font-family:'Myriad Pro';-inkscape-font-specification:MyriadPro-Regular;writing-mode:lr-tb;fill:#231f20;fill-opacity:1;fill-rule:nonzero;stroke:none"
       transform="matrix(1,0,0,-1,31.5,369)"><tspan
         id="tspan244"
         y="0"
         x="0 4.3460002 9.8360004 11.866 15.109 20.135 28.503 33.897999 38.609001 43.618999 45.648998 48.922001 54.507 59.516998 61.547001 68.938004 71.246002 76.819 82.425003 86.416 90.869003 94.112 99.210999 104.237 109.787 111.857 113.887 118.417 123.214 126.457 131.521 134.515 140.006 142.32001 144.711 149.42101 151.451 157.024 160.325 165.09801 169.01401 174.70399 176.73399 180.007 185.592 190.60201 192.632 200.02299 202.33099 207.90401 213.50999 217.50101 221.95399 225.19701 230.29601 235.32201 240.87199 242.90199 245.218 247.55299 253.12 258.59399 261.866 264.258 268.96799 270.99799 275.802 278.18701 283.70001 289.26801 294.858 296.888 299.228 302.63599 306.59601 308.62601 313.65201 319.12601 322.39899 324.70599 327.94901 332.95901">To remove the windscreen, carefully grasp the windscreen lightly along its entire </tspan></text>
<text
       id="text250"
       style="font-variant:normal;font-weight:normal;font-stretch:normal;font-size:10px;font-family:'Myriad Pro';-inkscape-font-specification:MyriadPro-Regular;writing-mode:lr-tb;fill:#231f20;fill-opacity:1;fill-rule:nonzero;stroke:none"
       transform="matrix(1,0,0,-1,31.5,357)"><tspan
         id="tspan248"
         y="0"
         x="0 2.385 7.4109998 12.98 18.596001 21.868999 27.419001 29.729 34.526001 40.098999 45.738998 48.049 51.292 56.318001 64.685997 70.081001 74.792 79.802002 82.112 85.111 88.348999 93.862 102.202 104.512 107.785 113.37 118.38 120.69 129.01199 131.347 135.8 139.03799 144.55099 150.28999 155.85899 161.37199 166.957 171.967 174.27699 179.327 181.71201 186.737 195.121 200.147 205.621 208.931 211.241 217.015 222.039 224.347 229.916 235.506 237.81599 242.34599 247.14301 250.386 255.45 258.444 263.935 266.29501 268.60501 274.17401 279.63699 282.94699 285.25699 288.48099 293.97101 296.28101 299.82001 307.211 309.5 313.539 316.849 319.159 322.43201 328.017 333.02701">length and remove from the microphone element being careful not to twist the </tspan></text>
<text
       id="text254"
       style="font-variant:normal;font-weight:normal;font-stretch:normal;font-size:10px;font-family:'Myriad Pro';-inkscape-font-specification:MyriadPro-Regular;writing-mode:lr-tb;fill:#231f20;fill-opacity:1;fill-rule:nonzero;stroke:none"
       transform="matrix(1,0,0,-1,31.5,345)"><tspan
         id="tspan252"
         y="0"
         x="0 5.0500002 7.4349999 12.461 20.841 25.867001 31.341 34.651001 36.771 39.108002 42.516998 46.516998 51.567001 53.950001 56.618999 58.688999">element itself. </tspan></text>
<text
       id="text258"
       style="font-variant:normal;font-weight:normal;font-stretch:normal;font-size:10px;font-family:'Myriad Pro';-inkscape-font-specification:MyriadPro-Regular;writing-mode:lr-tb;fill:#231f20;fill-opacity:1;fill-rule:nonzero;stroke:none"
       transform="matrix(1,0,0,-1,31.5,321)"><tspan
         id="tspan256"
         y="0"
         x="0 5.2189999 10.736 14.046 16.205999 19.479 25.063999 30.073999 32.234001 39.624001 41.931999 47.505001 53.111 57.102001 61.555 64.797997 69.897003 74.922997 80.473 82.633003 88.146004 93.695999 95.856003 99.128998 104.714 109.724 111.884 120.206 122.541 126.994 130.23199 135.745 141.48399 147.05299 152.565 158.14999 163.16 165.32001 170.939 175.649 177.80901 183.422 188.448 193.922 197.19501 199.586 204.29601 206.45599 212.181 217.672 219.98599 222.302 224.61 230.17799 235.76801 237.92799 240.927 244.16499 249.67799 258.01801 260.17801 263.45099 269.03601 274.04599 276.20599 281.71899 287.509 292.535 298.08499 300.245 305.271 310.84399 316.51001 318.57999 320.73999 327.48001 332.97">Put the windscreen on the microphone by gently pulling from the open end. Do </tspan></text>
<text
       id="text262"
       style="font-variant:normal;font-weight:normal;font-stretch:normal;font-size:10px;font-family:'Myriad Pro';-inkscape-font-specification:MyriadPro-Regular;writing-mode:lr-tb;fill:#231f20;fill-opacity:1;fill-rule:nonzero;stroke:none"
       transform="matrix(1,0,0,-1,31.5,309)"><tspan
         id="tspan260"
         y="0"
         x="0 5.5689998 11.032 14.342 16.462 22.187 27.677999 29.990999 32.351002 34.471001 36.811001 40.120998 42.241001 46.231998 51.722 53.841999 57.115002 59.450001 65.016998 70.490997 73.763 76.153999 80.863998 82.984001 86.257004 91.787003 96.545998 99.856003 101.976 104.316 107.626 109.746 113.785 117.078 120.321 125.366 128.56599 133 138.58501 143.582 147.54201 149.662 154.48199 160.05701 164.849 167.157 172.64799 176.687 179.99699 182.117 185.38901 190.974 195.98399 198.104 203.13 208.703 214.343 216.463 221.946 224.866 226.98599 230.259 235.84399 240.854 242.974 251.295 253.63 258.08301 261.32101 266.83401 272.573 278.142 283.655 289.23999 294.19101">not pull it so tightly that it stretches against the end of the microphone.</tspan></text>
<text
       id="text266"
       style="font-variant:normal;font-weight:bold;font-stretch:normal;font-size:10px;font-family:'Myriad Pro';-inkscape-font-specification:MyriadPro-Bold;writing-mode:lr-tb;fill:#231f20;fill-opacity:1;fill-rule:nonzero;stroke:none"
       transform="matrix(1,0,0,-1,171.7059,285)"><tspan
         id="tspan264"
         y="0"
         x="0 8.5869999 15.117 21.164 27.334 33.863998 40.782001 46.550999">WARRANTY</tspan></text>
<text
       id="text270"
       style="font-variant:normal;font-weight:normal;font-stretch:normal;font-size:10px;font-family:'Myriad Pro';-inkscape-font-specification:MyriadPro-Regular;writing-mode:lr-tb;fill:#231f20;fill-opacity:1;fill-rule:nonzero;stroke:none"
       transform="matrix(0.9968,0,0,-1,31.5,261)"><tspan
         id="tspan268"
         y="0"
         x="0 4.816 10.318 15.805 19.065001 20.754999 26.333 31.323 36.162998 41.762001 45.751999 50.791 54.091 55.780998 58.063 62.013 63.702999 68.056999 73.445999 78.150002 83.168999 86.404999 91.497002 97.126999 98.817001 104.429 109.129 110.819 115.629 117.319 119.628 121.929 130.244 132.57401 135.797 140.88901 146.519 148.209 151.741 159.033 164.79401 167.854 172.47701 177.467 182.257 185.517 187.207 192.94501 197.73599 201.28101 204.683 208.633 210.323 215.11301 220.67999 226.31 228 230.33 235.12 240.88699 246.39301 249.653 251.343 258.71399 263.504 266.80301 270.09698 274.88699 280.35501 283.931 288.20499 290.26501 291.95499 297.15302 299.53101 304.522 309.28799 313.27701 318.27701 319.96701 323.95599 329.048 334.05801">Your headset is covered by a limited two-year parts and labor warranty. Please see </tspan></text>
<text
       id="text274"
       style="font-variant:normal;font-weight:normal;font-stretch:normal;font-size:10px;font-family:'Myriad Pro';-inkscape-font-specification:MyriadPro-Regular;writing-mode:lr-tb;fill:#231f20;fill-opacity:1;fill-rule:nonzero;stroke:none"
       transform="matrix(1,0,0,-1,31.5,249)"><tspan
         id="tspan272"
         y="0"
         x="0 3.273 8.8579998 13.868 15.988 21.014 26.582001 31.016001 33.401001 38.854 42.849998 47.949001 53.589001 55.709 63.085999 67.883003 71.189003 74.489998 79.287003 84.761002 88.344002 93.054001 95.174004 99.704002 104.5 107.747 113.387 115.507 118.439 123.952 127.222 129.342 135.005 140.05099 143.42599 148.218 150.524 152.82401 156.847">the enclosed warranty card for details.</tspan></text>
<text
       id="text278"
       style="font-variant:normal;font-weight:normal;font-stretch:normal;font-size:10px;font-family:'Myriad Pro';-inkscape-font-specification:MyriadPro-Regular;writing-mode:lr-tb;fill:#231f20;fill-opacity:1;fill-rule:nonzero;stroke:none"
       transform="matrix(1,0,0,-1,31.5,225)"><tspan
         id="tspan276"
         y="0"
         x="0 4.823 10.332 15.842 18.222 26.552 31.224001 35.933998 38.313999 41.556999 46.622002 49.558998 54.584999 57.855 60.235001 63.459 68.948997 71.329002 74.601997 80.186996 85.196999 87.577003 93.321999 98.119003 101.671 105.08 109.04 111.42 113.736 116.025 120.064 123.374 125.754 131.267 136.817 139.19701 142.47 148.05499 153.065 155.44501 158.688 163.647 168.358 173.383 176.73199 180.728 185.73801 188.118 192.02699 194.384 200.047 204.98 207.05 209.42999 211.787 214.707 217.08701 221.717 227.226 232.73599 235.116 239.55 245.119 250.688 256.14099 260.13699 265.147 267.52701 270.75 276.23999 278.62 281.86301 286.88901 292.62299 294.95999 299.78 304.151 309.16101 311.54099 317.28601 322.08301 325.63501 329.04401 333.004">You may refer to the parts list on the reverse side, if you choose to replace parts </tspan></text>
<text
       id="text282"
       style="font-variant:normal;font-weight:normal;font-stretch:normal;font-size:10px;font-family:'Myriad Pro';-inkscape-font-specification:MyriadPro-Regular;writing-mode:lr-tb;fill:#231f20;fill-opacity:1;fill-rule:nonzero;stroke:none"
       transform="matrix(1,0,0,-1,31.5,213)"><tspan
         id="tspan280"
         y="0"
         x="0 4.6300001 10.139 15.632 18.981001 22.976999 28.027 30.41 33.077999 35.147999 37.728001 42.785999 48.370998 53.381001 55.960999 61.706001 66.502998 70.055 73.463997 77.424004 80.003998 82.32 84.609001 88.648003 91.958 94.538002 100.201 105.198 109.189 113.642 116.929 119.237 125.011 130.008 133.968 136.548 142.293 147.09 150.642 154.05099 158.011 160.591 163.52299 169.036 172.306 174.886 178.159 183.681 185.97099 189.931 192.511 198.255 203.052 206.604 209.877 212.21201 216.66 222.151 224.48801 229.285 232.55499 235.13499 240.72 245.717 250.564 256.17001 260.16599 265.21201 268.522 271.10199 276.61499 282.14801 284.539 288.82001 290.89001 293.47 298.689 303.48599 307.03799 310.44699 314.40701 316.987 319.30301 321.591 325.63101 329.039 332.99899">yourself. The parts list describes parts for this particular headset only. Parts lists </tspan></text>
<text
       id="text286"
       style="font-variant:normal;font-weight:normal;font-stretch:normal;font-size:10px;font-family:'Myriad Pro';-inkscape-font-specification:MyriadPro-Regular;writing-mode:lr-tb;fill:#231f20;fill-opacity:1;fill-rule:nonzero;stroke:none"
       transform="matrix(1,0,0,-1,31.5,201)"><tspan
         id="tspan284"
         y="0"
         x="0 2.9319999 8.4449997 11.715 13.885 19.348 22.621 28.205999 33.230999 36.500999 38.671001 47.039001 52.612999 58.276001 63.326 65.625999 69.585999 71.755997 76.553001 79.795998 84.806 86.975998 91.638 96.473 101.265 103.571 105.908 110.705 116.444 118.829 123.839 126.009 131.522 137.07201 139.242 144.75101 150.244 153.51401 155.68401 163.912 168.938 174.62801 176.798 181.658 183.998 187.22701 192.237 194.407 199.92 203.19 205.36 209.89 214.687 220.237 222.407 228.181 233.19099 235.36099 240.87399 246.564 249.939 254.731 257.03799 262.62299 267.72198 273.362 275.53201 281.151 285.86099 288.03101 292.392 297.905 303.379 306.754 311.57401 316.27301 319.54501 321.854 327.422 333.01199">for other models are available on our Web Site or can be obtained by contacting </tspan></text>
<text
       id="text290"
       style="font-variant:normal;font-weight:normal;font-stretch:normal;font-size:10px;font-family:'Myriad Pro';-inkscape-font-specification:MyriadPro-Regular;writing-mode:lr-tb;fill:#231f20;fill-opacity:1;fill-rule:nonzero;stroke:none"
       transform="matrix(1,0,0,-1,31.5,189)"><tspan
         id="tspan288"
         y="0"
         x="0 4.8600001 7.1950002 12.811 16.104 19.341999 24.851999 30.375 32.709999 37.298 41.257999 43.377998 49.047001 54.556999 57.862999 63.653 69.163002 72.463997 77.223 80.496002 82.848999 88.359001 93.949997">Sigtronics Corporation.</tspan></text>
<text
       id="text294"
       style="font-variant:normal;font-weight:normal;font-stretch:normal;font-size:10px;font-family:'Myriad Pro';-inkscape-font-specification:MyriadPro-Regular;writing-mode:lr-tb;fill:#231f20;fill-opacity:1;fill-rule:nonzero;stroke:none"
       transform="matrix(1,0,0,-1,211.5,106.5)"><tspan
         id="tspan292"
         y="0"
         x="0 4.8600001 7.1950002 12.811 16.104 19.341999 24.851999 30.375 32.709999 37.298 41.257999 43.377998 49.047001 54.556999 57.862999 63.653 69.163002 72.463997 77.223 80.496002 82.848999 88.359001">Sigtronics Corporation</tspan></text>
<text
       id="text298"
       style="font-variant:normal;font-weight:normal;font-stretch:normal;font-size:10px;font-family:'Myriad Pro';-inkscape-font-specification:MyriadPro-Regular;writing-mode:lr-tb;fill:#231f20;fill-opacity:1;fill-rule:nonzero;stroke:none"
       transform="matrix(1,0,0,-1,211.5,94.5)"><tspan
         id="tspan296"
         y="0"
         x="0 4.3460002 9.2720003 14.402 16.521999 21.504999 26.278 30.316999 33.626999 35.747002 41.844002 45.150002 48.388 53.803001 61.162998 63.283001 69.813004 72.148003 77.714996 83.140999 90.516998 95.189003">178 East Arrow Highway</tspan></text>
<text
       id="text302"
       style="font-variant:normal;font-weight:normal;font-stretch:normal;font-size:10px;font-family:'Myriad Pro';-inkscape-font-specification:MyriadPro-Regular;writing-mode:lr-tb;fill:#231f20;fill-opacity:1;fill-rule:nonzero;stroke:none"
       transform="matrix(1,0,0,-1,211.5,82.5)"><tspan
         id="tspan300"
         y="0"
         x="0 4.9790001 9.776 15.326 17.445999 24.135 26.441999 34.772999 39.546001 43.546001 45.616001 47.736 53.666 59.785999 61.905998 66.649002 70.995003 76.051003 81.058998">San Dimas, CA 91773</tspan></text>
<text
       id="text306"
       style="font-variant:normal;font-weight:bold;font-stretch:normal;font-size:10px;font-family:'Myriad Pro';-inkscape-font-specification:MyriadPro-Bold;writing-mode:lr-tb;fill:#231f20;fill-opacity:1;fill-rule:nonzero;stroke:none"
       transform="matrix(1,0,0,-1,211.5,68.5)"><tspan
         id="tspan304"
         y="0"
         x="0 5.7649999 11.685 17.514999 23.434999 28.728001">Phone:</tspan></text>
<text
       id="text310"
       style="font-variant:normal;font-weight:normal;font-stretch:normal;font-size:10px;font-family:'Myriad Pro';-inkscape-font-specification:MyriadPro-Regular;writing-mode:lr-tb;fill:#231f20;fill-opacity:1;fill-rule:nonzero;stroke:none"
       transform="matrix(1,0,0,-1,244.9388,68.5)"><tspan
         id="tspan308"
         y="0"
         x="0 5.2360001 10.406 15.535 17.655001 22.719999 27.76 33.043999 36.153999 41.07 45.972 51.159">909 305-9399</tspan></text>
<text
       id="text314"
       style="font-variant:normal;font-weight:bold;font-stretch:normal;font-size:10px;font-family:'Myriad Pro';-inkscape-font-specification:MyriadPro-Bold;writing-mode:lr-tb;fill:#231f20;fill-opacity:1;fill-rule:nonzero;stroke:none"
       transform="matrix(1,0,0,-1,211.5,54.5)"><tspan
         id="tspan312"
         y="0"
         x="0 5.4359999 8.7989998 17.472 22.802 25.591999 28.360001">E-mail:</tspan></text>
<text
       id="text318"
       style="font-variant:normal;font-weight:normal;font-stretch:normal;font-size:10px;font-family:'Myriad Pro';-inkscape-font-specification:MyriadPro-Regular;writing-mode:lr-tb;fill:#231f20;fill-opacity:1;fill-rule:nonzero;stroke:none"
       transform="matrix(1,0,0,-1,244.5795,54.5)"><tspan
         id="tspan316"
         y="0"
         x="0 2.3099999 7.8299999 10.762 16.316999 23.687 27.596001 29.931 35.547001 38.84 42.080002 47.592999 53.112999 55.448002 60.035999 64.058998 66.098999 70.459999 75.973">info@sigtronics.com</tspan></text>
<text
       id="text322"
       style="font-variant:normal;font-weight:bold;font-stretch:normal;font-size:10px;font-family:'Myriad Pro';-inkscape-font-specification:MyriadPro-Bold;writing-mode:lr-tb;fill:#231f20;fill-opacity:1;fill-rule:nonzero;stroke:none"
       transform="matrix(1,0,0,-1,211.5,40.5)"><tspan
         id="tspan320"
         y="0"
         x="0 8.665 14.051 20.031 22.051001 27.478001 30.268 33.987999 39.280998">Web Site:</tspan></text>
<text
       id="text326"
       style="font-variant:normal;font-weight:normal;font-stretch:normal;font-size:10px;font-family:'Myriad Pro';-inkscape-font-specification:MyriadPro-Regular;writing-mode:lr-tb;fill:#231f20;fill-opacity:1;fill-rule:nonzero;stroke:none"
       transform="matrix(1,0,0,-1,255.5084,40.5)"><tspan
         id="tspan324"
         y="0"
         x="0 7.6570001 15.314 22.330999 24.541 28.450001 30.785 36.401001 39.694 42.933998 48.446999 53.966999 56.301998 60.889999 64.913002 66.953003 71.314003 76.827003">www.sigtronics.com</tspan></text>
</g></svg>